<svg width="562" height="658" viewBox="0 0 562 658" fill="none" xmlns="http://www.w3.org/2000/svg">
<path d="M152.399 0.68579C149.919 0.851105 148.043 2.99538 148.208 5.47515C148.374 7.95493 150.518 9.83117 152.998 9.66586L152.399 0.68579ZM230.263 101.111L234.75 100.777C233.54 84.5193 229.384 58.7573 217.48 37.4277C211.502 26.7159 203.476 16.9528 192.724 10.1446C181.917 3.3017 168.606 -0.394689 152.399 0.68579L152.698 5.17582L152.998 9.66586C167.408 8.70521 178.804 11.9829 187.909 17.7484C197.069 23.5487 204.16 32.0287 209.621 41.8137C220.596 61.4776 224.605 85.7243 225.775 101.445L230.263 101.111Z" fill="white"/>
<path d="M393.856 0.68579C396.336 0.851105 398.212 2.99538 398.047 5.47515C397.882 7.95493 395.737 9.83117 393.258 9.66586L393.856 0.68579ZM315.992 101.111L311.505 100.777C312.715 84.5193 316.871 58.7573 328.775 37.4277C334.753 26.7159 342.779 16.9528 353.531 10.1446C364.338 3.3017 377.649 -0.394689 393.856 0.68579L393.557 5.17582L393.258 9.66586C378.847 8.70521 367.451 11.9829 358.346 17.7484C349.186 23.5487 342.095 32.0287 336.634 41.8137C325.66 61.4776 321.651 85.7243 320.48 101.445L315.992 101.111Z" fill="white"/>
<path d="M211.892 375.649C208.259 383.883 208.261 383.884 208.263 383.885C208.263 383.885 208.265 383.886 208.267 383.886C208.27 383.888 208.273 383.889 208.277 383.891C208.285 383.894 208.295 383.899 208.307 383.904C208.332 383.915 208.365 383.929 208.406 383.947C208.488 383.983 208.603 384.033 208.75 384.096C209.045 384.222 209.467 384.4 210.009 384.624C211.091 385.072 212.652 385.701 214.617 386.45C218.545 387.948 224.112 389.936 230.738 391.924C243.877 395.865 261.67 399.958 279.251 399.958V390.958V381.958C264.173 381.958 248.287 378.396 235.911 374.683C229.779 372.843 224.631 371.004 221.031 369.632C219.234 368.946 217.828 368.379 216.885 367.989C216.414 367.795 216.059 367.644 215.829 367.546C215.715 367.497 215.631 367.461 215.58 367.439C215.554 367.427 215.537 367.42 215.528 367.416C215.523 367.414 215.521 367.413 215.52 367.413C215.52 367.412 215.52 367.413 215.521 367.413C215.521 367.413 215.522 367.414 215.523 367.414C215.524 367.414 215.525 367.415 211.892 375.649ZM279.251 390.958V399.958C296.784 399.958 315.558 395.883 329.627 391.975C336.731 390.002 342.781 388.029 347.066 386.546C349.211 385.803 350.919 385.182 352.102 384.741C352.694 384.521 353.155 384.345 353.475 384.223C353.634 384.162 353.758 384.113 353.846 384.079C353.89 384.062 353.924 384.049 353.949 384.039C353.962 384.034 353.972 384.03 353.98 384.027C353.984 384.025 353.987 384.024 353.99 384.023C353.992 384.022 353.993 384.022 353.994 384.021C353.995 384.021 353.997 384.02 350.692 375.649C347.388 367.278 347.389 367.277 347.39 367.277C347.39 367.277 347.39 367.276 347.391 367.276C347.391 367.276 347.391 367.276 347.39 367.277C347.388 367.277 347.385 367.279 347.378 367.281C347.366 367.286 347.344 367.294 347.314 367.306C347.252 367.33 347.155 367.368 347.023 367.419C346.758 367.521 346.354 367.674 345.821 367.872C344.756 368.269 343.18 368.843 341.178 369.536C337.171 370.923 331.484 372.778 324.81 374.632C311.323 378.378 294.377 381.958 279.251 381.958V390.958ZM128.204 435.864C123.14 443.304 123.143 443.305 123.145 443.307C123.146 443.308 123.149 443.31 123.151 443.311C123.156 443.314 123.162 443.318 123.169 443.323C123.182 443.332 123.201 443.345 123.223 443.36C123.269 443.391 123.332 443.434 123.413 443.488C123.575 443.596 123.807 443.75 124.107 443.947C124.706 444.341 125.578 444.906 126.705 445.619C128.959 447.043 132.236 449.056 136.401 451.458C144.724 456.258 156.625 462.633 171.01 468.975C199.645 481.601 238.764 494.385 279.369 493.851L279.251 484.852L279.133 475.853C242.174 476.339 205.769 464.629 178.272 452.505C164.591 446.473 153.273 440.41 145.394 435.865C141.458 433.595 138.388 431.709 136.321 430.402C135.287 429.749 134.505 429.241 133.99 428.903C133.733 428.734 133.542 428.607 133.421 428.526C133.361 428.486 133.318 428.457 133.292 428.439C133.279 428.431 133.271 428.425 133.267 428.422C133.264 428.421 133.264 428.42 133.264 428.42C133.264 428.421 133.265 428.421 133.265 428.421C133.266 428.422 133.268 428.423 128.204 435.864ZM279.251 484.852L279.369 493.851C320.102 493.315 357.509 478.887 384.438 464.9C397.961 457.876 408.991 450.885 416.66 445.634C420.498 443.007 423.504 440.81 425.568 439.254C426.601 438.476 427.399 437.858 427.948 437.426C428.223 437.21 428.436 437.041 428.586 436.921C428.66 436.861 428.719 436.814 428.762 436.78C428.783 436.762 428.8 436.748 428.814 436.738C428.82 436.732 428.826 436.728 428.831 436.724C428.833 436.722 428.835 436.72 428.837 436.719C428.839 436.717 428.841 436.715 423.154 429.74C417.466 422.765 417.468 422.764 417.469 422.762C417.47 422.762 417.471 422.761 417.471 422.761C417.472 422.761 417.471 422.761 417.47 422.762C417.467 422.765 417.46 422.77 417.449 422.779C417.427 422.796 417.39 422.827 417.337 422.869C417.23 422.954 417.061 423.089 416.831 423.269C416.372 423.631 415.668 424.176 414.736 424.879C412.869 426.285 410.086 428.321 406.493 430.781C399.3 435.705 388.898 442.3 376.141 448.926C350.509 462.24 315.965 475.368 279.133 475.853L279.251 484.852Z" fill="white"/>
<path d="M127.184 437.905C127.184 437.905 146.575 568.54 272.107 568.54C397.639 568.54 411.927 433.823 411.927 433.823" stroke="white" stroke-width="18"/>
<path d="M12.8779 422.596C-38.1515 274.611 259.861 209.293 259.861 209.293C256.798 250.117 262.922 284.817 225.16 356.258C177.192 429.74 52.6808 494.037 12.8779 422.596Z" stroke="white" stroke-width="13"/>
<path d="M548.687 422.596C599.716 274.611 301.704 209.293 301.704 209.293C304.766 250.117 298.643 284.817 336.404 356.258C384.372 429.74 508.884 494.037 548.687 422.596Z" stroke="white" stroke-width="13"/>
<ellipse cx="275.169" cy="168.47" rx="110.223" ry="79.6058" fill="white"/>
<path d="M270.964 658L288.641 576.863H253.287L270.964 658Z" fill="white"/>
</svg>
