<svg width="644" height="554" viewBox="0 0 644 554" fill="none" xmlns="http://www.w3.org/2000/svg">
<path d="M596.651 469.968C600.241 469.968 603.151 467.057 603.151 463.468C603.151 459.878 600.241 456.968 596.651 456.968V469.968ZM478.604 463.468V469.968H596.651V463.468V456.968H478.604V463.468Z" fill="white"/>
<path d="M51.6809 469.968C48.091 469.968 45.1809 467.057 45.1809 463.468C45.1809 459.878 48.091 456.968 51.6809 456.968V469.968ZM169.728 463.468V469.968H51.6809V463.468V456.968H169.728V463.468Z" fill="white"/>
<path d="M189.255 514.597L238.071 468.793M238.071 468.793V534.474M238.071 468.793L288.663 514.597" stroke="white" stroke-width="13"/>
<path d="M356.119 514.597L404.935 468.793M404.935 468.793V534.474M404.935 468.793L455.527 514.597" stroke="white" stroke-width="13"/>
<path d="M266.474 419.977C266.474 419.977 282.45 438.616 319.728 438.616C357.006 438.616 374.758 419.977 374.758 419.977" stroke="white" stroke-width="13"/>
<path d="M273.847 397.361C273.611 393.779 270.516 391.066 266.934 391.302C263.352 391.537 260.639 394.632 260.875 398.214L273.847 397.361ZM210.556 463.468L208.916 469.757C220.125 472.682 237.667 473.413 252.038 463.223C266.801 452.755 276.146 432.3 273.847 397.361L267.361 397.788L260.875 398.214C263.014 430.731 254.164 445.779 244.518 452.618C234.481 459.736 221.402 459.58 212.197 457.178L210.556 463.468Z" fill="white"/>
<path d="M369.159 397.361C369.395 393.779 372.49 391.066 376.072 391.302C379.654 391.537 382.367 394.632 382.131 398.214L369.159 397.361ZM432.45 463.468L434.09 469.757C422.881 472.682 405.339 473.413 390.968 463.223C376.205 452.755 366.86 432.3 369.159 397.361L375.645 397.788L382.131 398.214C379.992 430.731 388.842 445.779 398.488 452.618C408.525 459.736 421.604 459.58 430.809 457.178L432.45 463.468Z" fill="white"/>
<path d="M155.527 254.888C153.456 271.752 151.977 321.101 155.527 330.332" stroke="white" stroke-width="13"/>
<path d="M485.704 255.776C487.775 272.64 489.254 321.989 485.704 331.219" stroke="white" stroke-width="13"/>
<path d="M117.361 179.445C117.361 109.149 159.669 86.2495 180.379 80.924C180.379 40.9833 188.012 10.6283 229.195 6.36793C270.379 2.10758 291.326 35.6579 291.326 64.9477L353.456 64.9477C351.385 42.7584 357.945 4.01614 412.035 6.36793C473.278 9.03066 466.177 74.711 466.177 74.711C466.177 74.711 528.369 96.9003 527.42 179.445C526.71 241.22 464.994 276.19 435.112 283.291C363.219 281.811 237.184 283.291 216.769 283.291C211.594 283.291 117.361 267.314 117.361 179.445Z" stroke="white" stroke-width="11"/>
<path d="M118.249 186.545H525.645" stroke="white" stroke-width="13"/>
<rect x="386.296" y="56.9597" width="44.3786" height="21.3017" rx="3" fill="white"/>
<rect x="210.556" y="56.9597" width="44.3786" height="21.3017" rx="3" fill="white"/>
<path d="M207.006 385.361H213.506C213.506 383.81 212.951 382.309 211.941 381.131L207.006 385.361ZM38.3675 253.113L39.2265 246.67L38.3675 253.113ZM163.515 463.468L159.626 468.676L161.356 469.968L163.515 469.968L163.515 463.468ZM207.006 463.467L207.006 469.967L213.506 469.967V463.467H207.006ZM207.006 385.361L211.941 381.131C196.062 362.605 170.257 331.409 140.054 303.789C110.055 276.355 74.6164 251.388 39.2265 246.67L38.3675 253.113L37.5085 259.556C68.6868 263.713 101.591 286.231 131.281 313.383C160.768 340.348 185.998 370.839 202.071 389.591L207.006 385.361ZM38.3675 253.113L39.2265 246.67C27.3258 245.083 17.4584 245.986 10.4525 250.474C2.88462 255.322 0.203557 263.267 0.526449 271.785C0.839845 280.053 3.93303 289.591 8.66274 299.631C13.4427 309.777 20.1359 320.936 28.1553 332.573C60.1454 378.997 114.699 435.13 159.626 468.676L163.515 463.468L167.404 458.259C123.575 425.533 70.021 370.418 38.8599 325.197C31.0915 313.923 24.8067 303.396 20.4231 294.091C15.9893 284.679 13.7334 276.999 13.5171 271.293C13.3103 265.837 14.9188 263.051 17.4646 261.421C20.5724 259.43 26.6426 258.107 37.5085 259.556L38.3675 253.113ZM163.515 463.468L163.515 469.968L207.006 469.967L207.006 463.467L207.006 456.967L163.515 456.968L163.515 463.468ZM207.006 463.467H213.506V385.361H207.006H200.506V463.467H207.006Z" fill="white"/>
<path d="M436.586 385.361H430.086C430.086 383.81 430.641 382.309 431.65 381.131L436.586 385.361ZM605.224 253.113L604.365 246.67L605.224 253.113ZM480.076 463.468L483.965 468.676L482.235 469.968L480.076 469.968L480.076 463.468ZM436.586 463.467L436.586 469.967L430.086 469.967V463.467H436.586ZM436.586 385.361L431.65 381.131C447.53 362.605 473.335 331.409 503.537 303.789C533.536 276.355 568.975 251.388 604.365 246.67L605.224 253.113L606.083 259.556C574.905 263.713 542.001 286.231 512.31 313.383C482.824 340.348 457.594 370.839 441.521 389.591L436.586 385.361ZM605.224 253.113L604.365 246.67C616.266 245.083 626.133 245.986 633.139 250.474C640.707 255.322 643.388 263.267 643.065 271.785C642.752 280.053 639.659 289.591 634.929 299.631C630.149 309.777 623.456 320.936 615.436 332.573C583.446 378.997 528.893 435.13 483.965 468.676L480.076 463.468L476.187 458.259C520.017 425.533 573.571 370.418 604.732 325.197C612.5 313.923 618.785 303.396 623.168 294.091C627.602 284.679 629.858 276.999 630.074 271.293C630.281 265.837 628.673 263.051 626.127 261.421C623.019 259.43 616.949 258.107 606.083 259.556L605.224 253.113ZM480.076 463.468L480.076 469.968L436.586 469.967L436.586 463.467L436.586 456.967L480.076 456.968L480.076 463.468ZM436.586 463.467H430.086V385.361H436.586H443.086V463.467H436.586Z" fill="white"/>
<circle cx="189.255" cy="514.947" r="19.5266" fill="white"/>
<circle cx="237.184" cy="534.473" r="19.5266" fill="white"/>
<circle cx="286.888" cy="514.947" r="19.5266" fill="white"/>
<circle cx="356.118" cy="514.947" r="19.5266" fill="white"/>
<circle cx="405.822" cy="534.473" r="19.5266" fill="white"/>
<circle cx="453.751" cy="514.947" r="19.5266" fill="white"/>
</svg>
